<svg xmlns="http://www.w3.org/2000/svg" width="95" height="95" viewBox="0 0 95 95">
  <metadata><?xpacket begin="﻿" id="W5M0MpCehiHzreSzNTczkc9d"?>
<x:xmpmeta xmlns:x="adobe:ns:meta/" x:xmptk="Adobe XMP Core 5.6-c138 79.159824, 2016/09/14-01:09:01        ">
   <rdf:RDF xmlns:rdf="http://www.w3.org/1999/02/22-rdf-syntax-ns#">
      <rdf:Description rdf:about=""/>
   </rdf:RDF>
</x:xmpmeta>





















<?xpacket end="w"?></metadata>
<defs>
    <style>
      .cls-1 {
        fill: #ffffff;
        fill-rule: evenodd;
      }
    </style>
  </defs>
  <path class="cls-1" d="M93.7,49.882a1.34,1.34,0,0,1-1.517-1.118q0-1.136,0-2.273A46.79,46.79,0,0,0,86.059,25.04a44.035,44.035,0,0,0-12.446-13.7,2.539,2.539,0,0,1-.951-0.91,1.331,1.331,0,0,1,.307-1.646,1.3,1.3,0,0,1,1.812-.1c1.238,0.937,2.5,1.847,3.671,2.867A47.9,47.9,0,0,1,95,48.154,1.529,1.529,0,0,1,93.7,49.882ZM67,7.386a42.368,42.368,0,0,0-7.485-2.859,43.415,43.415,0,0,0-14.91-1.549A44.21,44.21,0,0,0,15.565,16.305,41.27,41.27,0,0,0,11.746,20.8a1.8,1.8,0,0,1-1.054.9,1.389,1.389,0,0,1-1.527-.5,1.411,1.411,0,0,1,.045-1.762,44.142,44.142,0,0,1,4.172-4.941A47.379,47.379,0,0,1,38.586.887,59.828,59.828,0,0,1,47.033,0,48.736,48.736,0,0,1,67.943,4.675,1.651,1.651,0,0,1,69.1,5.823a1.375,1.375,0,0,1-.5,1.445A1.411,1.411,0,0,1,67,7.386ZM3.689,38.922a42.1,42.1,0,0,0-.756,11.05,49.76,49.76,0,0,0,1.192,7.947A1.529,1.529,0,0,1,3.06,60.011c-0.824.152-1.493-.418-1.751-1.484A50.961,50.961,0,0,1,0,47.88a48.548,48.548,0,0,1,5.089-21.7,1.5,1.5,0,0,1,1.533-1.035,1.432,1.432,0,0,1,1.265,1.121,1.5,1.5,0,0,1-.255,1.17A43.993,43.993,0,0,0,3.689,38.922ZM6.8,57.259c-0.1-1.315-.38-2.616-0.583-3.922a39.766,39.766,0,0,1-.184-9.864,39.806,39.806,0,0,1,5.548-16.936,41.128,41.128,0,0,1,27.641-19.9,42.866,42.866,0,0,1,13.506-.552A1.44,1.44,0,0,1,54.25,7.648c-0.037.9-.572,1.351-1.713,1.271A55.442,55.442,0,0,0,45.324,8.7a38.632,38.632,0,0,0-17.173,5.052A38.1,38.1,0,0,0,9.741,37.91,40.613,40.613,0,0,0,8.559,47.5,58.5,58.5,0,0,0,9.4,55.211,12.987,12.987,0,0,1,6.338,66.433a1.375,1.375,0,0,1-2.081.3,1.4,1.4,0,0,1-.046-2.169A9.742,9.742,0,0,0,6.8,57.259Zm5.447,3.879a11.312,11.312,0,0,0,.282-3.185c0.154-1.845-.438-3.58-0.643-5.363A31.611,31.611,0,0,1,11.564,49a1.418,1.418,0,0,1,1.255-1.529A1.369,1.369,0,0,1,14.367,48.7c0.022,3.426,1.322,6.723,1.008,10.172A19.1,19.1,0,0,1,8.969,71.9a1.434,1.434,0,1,1-1.886-2.119A15.667,15.667,0,0,0,12.242,61.137Zm5.96-.779A22.2,22.2,0,0,0,17.788,53a17.453,17.453,0,0,1-.464-4.234q0-1.136,0-2.273a29.373,29.373,0,0,1,2.431-10.826A30.147,30.147,0,0,1,28.137,24.3a1.515,1.515,0,0,1,2.268-.073c0.62,0.712.524,1.431-.383,2.2a27.079,27.079,0,0,0-9.187,14.708,28.312,28.312,0,0,0-.194,11.564c1.656,9.517-1.1,17.556-8.394,23.962a1.42,1.42,0,0,1-2.24.015c-0.582-.708-0.425-1.473.447-2.2A21.173,21.173,0,0,0,18.2,60.358Zm3.961,7.486a1.39,1.39,0,0,1,1.668-1.033,1.275,1.275,0,0,1,1.093,1.468,1.826,1.826,0,0,1-.259.963,30.616,30.616,0,0,1-8.6,11.752c-0.869.728-1.652,0.732-2.241,0.017a1.4,1.4,0,0,1,.363-2.143A27.436,27.436,0,0,0,22.164,67.844Zm6.461-1.1a31.726,31.726,0,0,0,.533-15.264A18.957,18.957,0,0,1,44.093,29.125a18.34,18.34,0,0,1,4.338-.345,1.766,1.766,0,0,1,1.629.783A1.413,1.413,0,0,1,48.79,31.7,5.315,5.315,0,0,1,48,31.614c-7.876.057-14.694,4.865-16.227,13.178a19.853,19.853,0,0,0,.393,7.145,33.929,33.929,0,0,1,.2,10.205A36.306,36.306,0,0,1,26.954,77.2a33.16,33.16,0,0,1-6.526,7.636c-0.824.7-1.555,0.732-2.167,0.086a1.412,1.412,0,0,1,.283-2.22A32.759,32.759,0,0,0,28.625,66.746Zm-0.56,14.04a38.266,38.266,0,0,0,6.967-16.455A36.978,36.978,0,0,0,35.22,52.81a1.471,1.471,0,0,1,1.245-1.8,1.386,1.386,0,0,1,1.6,1.431,33.683,33.683,0,0,1,.4,5.307,42.212,42.212,0,0,1-12.87,30.171,2.623,2.623,0,0,1-.805.652,1.34,1.34,0,0,1-1.754-.493,1.454,1.454,0,0,1,.3-1.964A38.934,38.934,0,0,0,28.065,80.786Zm10.125-6.52a1.613,1.613,0,0,1,1.585-1.177,1.452,1.452,0,0,1,1.088,2.178,48.291,48.291,0,0,1-5.907,10.651,44.1,44.1,0,0,1-4.1,4.867c-0.814.824-1.553,0.887-2.219,0.214a1.414,1.414,0,0,1,.162-2.169A44.576,44.576,0,0,0,38.19,74.265Zm7.4-4.122a49.207,49.207,0,0,0,1.469-13.334,47.468,47.468,0,0,0-.972-8.836,1.51,1.51,0,0,1,1.172-1.863,1.449,1.449,0,0,1,1.652,1.318A46.67,46.67,0,0,1,49.905,57.7a53.34,53.34,0,0,1-12.727,34.71c-0.122.146-.252,0.286-0.383,0.424a1.443,1.443,0,0,1-2.159.265,1.5,1.5,0,0,1,.06-2.193A50.71,50.71,0,0,0,45.593,70.143ZM43.036,89.469A55.214,55.214,0,0,0,51.923,68.18,53.348,53.348,0,0,0,52.7,53.427a43.938,43.938,0,0,0-1.121-7.275c-0.565-2.161-2.478-3.28-4.943-2.906a3.949,3.949,0,0,0-3.46,4.086c0.11,1.6.441,3.181,0.651,4.774a46.858,46.858,0,0,1,.188,9.583,46.6,46.6,0,0,1-.82,5.8,1.446,1.446,0,1,1-2.831-.514,43.815,43.815,0,0,0,.926-11.128,34.995,34.995,0,0,0-.839-6.655c-0.852-3.81,1.821-8.109,5.663-8.755a7.39,7.39,0,0,1,8.49,5.833,64.875,64.875,0,0,1,1.13,11.066A59.983,59.983,0,0,1,43.6,93.619a6.693,6.693,0,0,1-.476.594,1.4,1.4,0,0,1-1.962.209,1.448,1.448,0,0,1-.238-2.027C41.61,91.407,42.352,90.458,43.036,89.469Zm6.4,0.753A60.71,60.71,0,0,0,57.7,68.236c0.187-1.152.355-2.308,0.548-3.459A1.36,1.36,0,0,1,59.78,63.57a1.477,1.477,0,0,1,1.308,1.2,64.189,64.189,0,0,1-2.294,11.4,65.453,65.453,0,0,1-8.4,17.822,1.97,1.97,0,0,1-.934.909,1.344,1.344,0,0,1-1.557-.366,1.4,1.4,0,0,1-.112-1.758C48.32,91.91,48.914,91.086,49.44,90.222Zm10.7-45.379c0.412,1.9.708,3.838,0.937,5.772,0.227,1.916.3,3.85,0.442,5.776l-0.034,0c0,0.381.012,0.762,0,1.143a1.423,1.423,0,0,1-1.443,1.531,1.37,1.37,0,0,1-1.41-1.536A66.477,66.477,0,0,0,57.3,45.215,9.791,9.791,0,0,0,48.9,37.5c-6.2-.674-10.415,3.384-11.252,7.749a1.465,1.465,0,0,1-1.744,1.316,1.484,1.484,0,0,1-1.032-2.1,12.908,12.908,0,0,1,9.047-9.39A13.039,13.039,0,0,1,60.139,44.843ZM58.352,85.689a67.974,67.974,0,0,0,5.4-18.434,65.694,65.694,0,0,0,.566-12.618,55.012,55.012,0,0,0-1.577-11.427,14.956,14.956,0,0,0-6.821-9.119C55.7,33.956,55.48,33.835,55.27,33.7a1.389,1.389,0,0,1-.591-2.019,1.468,1.468,0,0,1,2.085-.4,19.06,19.06,0,0,1,6.254,5.871,20.682,20.682,0,0,1,3.208,8.8,74.8,74.8,0,0,1,.987,11.819,70.938,70.938,0,0,1-9.34,35.095c-0.109.192-.214,0.387-0.34,0.569A1.413,1.413,0,1,1,55.1,91.994C56.262,89.933,57.367,87.843,58.352,85.689Zm7.766-4.024c0.51-1.554.982-3.12,1.459-4.685a1.44,1.44,0,1,1,2.722.773A75.528,75.528,0,0,1,65.477,90.76a1.686,1.686,0,0,1-1.439,1.218,1.452,1.452,0,0,1-1.213-2.265A70.556,70.556,0,0,0,66.118,81.665Zm7.832-6.471A81.59,81.59,0,0,0,75.605,64.44a69.241,69.241,0,0,0,.142-11.224c-0.435-5.7-.945-11.4-3.222-16.744a26.448,26.448,0,0,0-2.762-4.855,1.417,1.417,0,0,1,.14-2.175,1.434,1.434,0,0,1,2.185.533,30.788,30.788,0,0,1,5.181,12.374A77.029,77.029,0,0,1,78.69,56.93,82.074,82.074,0,0,1,73.5,86.571c-0.022.059-.024,0.126-0.047,0.184a1.478,1.478,0,0,1-1.983,1.091,1.463,1.463,0,0,1-.687-2.073A84.524,84.524,0,0,0,73.949,75.193Zm6.692-4.38a65.683,65.683,0,0,0,.828-7.825,48.194,48.194,0,0,0,.19-5.137c0.118-1.719-.2-3.422-0.177-5.138,0.012-1.078.473-1.645,1.371-1.661,0.941-.016,1.427.566,1.5,1.675A80.441,80.441,0,0,1,84.33,63.29a90.714,90.714,0,0,1-2.711,16.8,1.466,1.466,0,0,1-1.788,1.278,1.446,1.446,0,0,1-.99-1.955A85.7,85.7,0,0,0,80.642,70.813ZM15.711,38.2c-0.338,1.178-.584,2.383-0.881,3.574a1.446,1.446,0,0,1-1.692,1.252,1.464,1.464,0,0,1-1.04-1.836,35.906,35.906,0,0,1,28.37-28.931c11.36-2.218,21.568.674,30.428,8.113a35.567,35.567,0,0,1,11.7,19.2c0.433,1.738.653,3.53,0.955,5.3a1.517,1.517,0,0,1-1.26,1.728,1.434,1.434,0,0,1-1.564-1.307,53.5,53.5,0,0,0-1.65-7.652C75.2,25.992,67.357,18.527,55.517,15.317a26.045,26.045,0,0,0-6.9-.928C32.528,14.4,19.761,24.092,15.711,38.2Zm19.3-18.211A28.891,28.891,0,0,1,41.467,17.9a22.726,22.726,0,0,1,4.788-.551h2.271a29.939,29.939,0,0,1,13.459,3.678,27.435,27.435,0,0,1,4.345,2.886c0.912,0.74,1.089,1.444.539,2.187s-1.384.763-2.321,0.024A26.9,26.9,0,0,0,53.2,20.73a27.385,27.385,0,0,0-16.6,1.666,2.391,2.391,0,0,1-1.256.365,1.381,1.381,0,0,1-1.289-1.2A1.412,1.412,0,0,1,35.013,19.986Zm-12,27.751c0.061-11.731,8.345-22.2,20.057-24.272A24.56,24.56,0,0,1,71.367,42.327a64.067,64.067,0,0,1,1.387,9.93C72.9,54.13,72.88,56,72.917,57.869a64,64,0,0,1-.956,12.2,1.347,1.347,0,0,1-1.693,1.217,1.438,1.438,0,0,1-1.119-1.707,67.409,67.409,0,0,0,.929-13.346c-0.1-5.294-.476-10.59-2.165-15.618C65.181,32.479,59.4,27.5,50.95,26.155A21.492,21.492,0,0,0,26.327,51.864a32.013,32.013,0,0,1,.473,8.89A1.562,1.562,0,0,1,25.3,62.3a1.438,1.438,0,0,1-1.326-1.726,27.817,27.817,0,0,0-.221-6.922A31.9,31.9,0,0,1,23.017,47.737Zm62.874-6.33A38.976,38.976,0,0,0,73.6,18.678a38.106,38.106,0,0,0-13.829-8.037,1.7,1.7,0,0,1-1.459-1.523,1.461,1.461,0,0,1,2.133-1.271,39.135,39.135,0,0,1,7.415,3.294A41.675,41.675,0,0,1,88.12,38.126a73.415,73.415,0,0,1,1.587,9.987,88.958,88.958,0,0,1,.52,11.873,70.91,70.91,0,0,1-.73,9.279,1.343,1.343,0,0,1-1.6,1.308,1.487,1.487,0,0,1-1.154-1.845c0.258-2.775.46-5.556,0.684-8.334q0-2.567,0-5.133A123.429,123.429,0,0,0,85.891,41.407Z"/>
</svg>
