<svg xmlns="http://www.w3.org/2000/svg" width="13.5" height="15.1" viewBox="0 0 135 151">
  <metadata><?xpacket begin="﻿" id="W5M0MpCehiHzreSzNTczkc9d"?>
<x:xmpmeta xmlns:x="adobe:ns:meta/" x:xmptk="Adobe XMP Core 5.6-c142 79.160924, 2017/07/13-01:06:39        ">
   <rdf:RDF xmlns:rdf="http://www.w3.org/1999/02/22-rdf-syntax-ns#">
      <rdf:Description rdf:about=""
            xmlns:xmp="http://ns.adobe.com/xap/1.0/">
         <xmp:CreatorTool>Adobe Photoshop CC (Windows)</xmp:CreatorTool>
      </rdf:Description>
   </rdf:RDF>
</x:xmpmeta>
                                                                                                    
                                                                                                    
                                                                                                    
                                                                                                    
                                                                                                    
                                                                                                    
                                                                                                    
                                                                                                    
                                                                                                    
                                                                                                    
                                                                                                    
                                                                                                    
                                                                                                    
                                                                                                    
                                                                                                    
                                                                                                    
                                                                                                    
                                                                                                    
                                                                                                    
                                                                                                    
                           
<?xpacket end="w"?></metadata>
<defs>
    <style>
      .cls-1 {
        fill-rule: evenodd;
      }
    </style>
  </defs>
  <path id="bill" class="cls-1" d="M33,25L44,35,55,25h2L67,35c11.829-9.88,10.159-9.636,22,0l11-10h2l10,10c11.829-9.88,8.04-13.873,22,0l11-10h2l10,10,11-10V176l-11-10-11,10h-2l-10-10c-11.829,9.88-10.158,9.636-22,0l-11,10H99L89,166c-6.12,5.111-9.366,10.207-12,10-2.457-.193-4.285-5.349-10-10L56,176H54L44,166,33,176V25ZM56,63V77h89V63H56Zm0,30v15h89V93H56Zm0,31v14h89V124H56Z" transform="translate(-33 -25)"/>
</svg>
