<svg xmlns="http://www.w3.org/2000/svg" width="15" height="14.5" viewBox="0 0 150 145">
  <metadata><?xpacket begin="﻿" id="W5M0MpCehiHzreSzNTczkc9d"?>
<x:xmpmeta xmlns:x="adobe:ns:meta/" x:xmptk="Adobe XMP Core 5.6-c142 79.160924, 2017/07/13-01:06:39        ">
   <rdf:RDF xmlns:rdf="http://www.w3.org/1999/02/22-rdf-syntax-ns#">
      <rdf:Description rdf:about=""
            xmlns:xmp="http://ns.adobe.com/xap/1.0/">
         <xmp:CreatorTool>Adobe Photoshop CC (Windows)</xmp:CreatorTool>
      </rdf:Description>
   </rdf:RDF>
</x:xmpmeta>
                                                                                                    
                                                                                                    
                                                                                                    
                                                                                                    
                                                                                                    
                                                                                                    
                                                                                                    
                                                                                                    
                                                                                                    
                                                                                                    
                                                                                                    
                                                                                                    
                                                                                                    
                                                                                                    
                                                                                                    
                                                                                                    
                                                                                                    
                                                                                                    
                                                                                                    
                                                                                                    
                           
<?xpacket end="w"?></metadata>
<defs>
    <style>
      .cls-1 {
        fill-rule: evenodd;
      }
    </style>
  </defs>
  <path id="products" class="cls-1" d="M174,174H24V77L43.868,47,53.8,29h90.4Q159.1,53,174,77v97ZM58.768,36L33.934,77H164.066V75L139.232,36H58.768Zm6.954,5h66.556l2.98,7H62.742V46ZM57.775,53h82.45l2.98,7H54.795V58ZM50.821,65h96.358l2.98,7H47.841V70Zm29.8,48c-10.264,3.29-9.341,13.425-7.081,17.153,2.818,4.647,6.7,8,13.041,7.847,8.781-.212,19.526.512,30.794-1,6.029-.984,8.487-7.031,8.941-12-1.862-6.87-2.008-10.244-10.927-12H80.623Z" transform="translate(-24 -29)"/>
</svg>
