<svg xmlns="http://www.w3.org/2000/svg" width="14.7" height="13.303" viewBox="0 0 147 133.031">
  <metadata><?xpacket begin="﻿" id="W5M0MpCehiHzreSzNTczkc9d"?>
<x:xmpmeta xmlns:x="adobe:ns:meta/" x:xmptk="Adobe XMP Core 5.6-c142 79.160924, 2017/07/13-01:06:39        ">
   <rdf:RDF xmlns:rdf="http://www.w3.org/1999/02/22-rdf-syntax-ns#">
      <rdf:Description rdf:about=""
            xmlns:xmp="http://ns.adobe.com/xap/1.0/">
         <xmp:CreatorTool>Adobe Photoshop CC (Windows)</xmp:CreatorTool>
      </rdf:Description>
   </rdf:RDF>
</x:xmpmeta>
                                                                                                    
                                                                                                    
                                                                                                    
                                                                                                    
                                                                                                    
                                                                                                    
                                                                                                    
                                                                                                    
                                                                                                    
                                                                                                    
                                                                                                    
                                                                                                    
                                                                                                    
                                                                                                    
                                                                                                    
                                                                                                    
                                                                                                    
                                                                                                    
                                                                                                    
                                                                                                    
                           
<?xpacket end="w"?></metadata>
<defs>
    <style>
      .cls-1 {
        fill-rule: evenodd;
      }
    </style>
  </defs>
  <path class="cls-1" d="M93.515,30l9.809,0.984c1.637,2.124,3.049,5.084.98,10.825,9.628,11.759,21.8,25.9,31.387,34.442C148.7,75.857,160.55,77.025,171,76c-0.327,3.28-.23,8.2-0.981,14.027C159.468,90.232,148.356,90.705,127,91H24V78c11.115-.328,25.053-1.422,36.168-1.75L89.592,42.793C89.543,35.132,89.96,34.3,93.515,30Zm0,15.745L68.014,76.25h58.849l-3.923-3.936L101.362,45.745H93.515ZM36.628,93.963C77.164,93.963,117.464,94,158,94c-4.25,22.631-8.251,45.231-12.5,67.862-14.991.23-89.981,3.477-96.12-1.968Z" transform="translate(-24 -30)"/>
</svg>
