<svg xmlns="http://www.w3.org/2000/svg" width="15.1" height="11.5" viewBox="0 0 151 115">
  <metadata><?xpacket begin="﻿" id="W5M0MpCehiHzreSzNTczkc9d"?>
<x:xmpmeta xmlns:x="adobe:ns:meta/" x:xmptk="Adobe XMP Core 5.6-c142 79.160924, 2017/07/13-01:06:39        ">
   <rdf:RDF xmlns:rdf="http://www.w3.org/1999/02/22-rdf-syntax-ns#">
      <rdf:Description rdf:about=""
            xmlns:xmp="http://ns.adobe.com/xap/1.0/">
         <xmp:CreatorTool>Adobe Photoshop CC (Windows)</xmp:CreatorTool>
      </rdf:Description>
   </rdf:RDF>
</x:xmpmeta>
                                                                                                    
                                                                                                    
                                                                                                    
                                                                                                    
                                                                                                    
                                                                                                    
                                                                                                    
                                                                                                    
                                                                                                    
                                                                                                    
                                                                                                    
                                                                                                    
                                                                                                    
                                                                                                    
                                                                                                    
                                                                                                    
                                                                                                    
                                                                                                    
                                                                                                    
                                                                                                    
                           
<?xpacket end="w"?></metadata>
<defs>
    <style>
      .cls-1 {
        fill-rule: evenodd;
      }
    </style>
  </defs>
  <path class="cls-1" d="M24,125.429c0.181-15.84,6.54-21.965,17.541-26.667,8.279-3.539,17.207-.418,17.541-12.308C50.3,80.3,50.255,60.374,52.891,48.5c2.506-1.536,2.937-3.119,6.191-4.1,3.356-3.273,17.58-3.481,19.6,1.026C66.076,52.976,68,80.372,73.527,94.659c1.147,2.966,7.594,12.08,6.191,13.334-4.506,4.456-16.16,5.4-22.7,8.2a80.166,80.166,0,0,0-11.35,6.154L43.6,125.429H24ZM122.023,42.35c10.344-.4,20.421-0.474,22.7,7.18,10.686,10.2-5.766,34.039-4.128,44.1,7.892,1.646,16.373,5.834,22.7,9.231l4.128,1.026,6.19,8.2c0.28,3.813,2.126,10.7,1.032,12.308-0.97.785-17.164,2.165-19.6,1.026-1.534-.716-3.607-4.153-5.159-5.128l-9.287-3.077c-3-1.305-7.146-3.893-10.318-5.129-5.117-1.992-10.609-.815-12.382-6.154,6.838-4.831,14.881-35.027,10.319-48.206-1.883-5.438-6.615-9.207-8.255-14.359C121.941,42.746,120.87,43.366,122.023,42.35ZM92.1,44.4c9.771-.18,15.772,1.527,22.7,3.077,2.821,4.446,6.6,7.347,8.254,13.334,3.059,11.073-2.922,31.732-6.19,37.949-0.7,1.335-3.582,3.488-4.128,5.128-1.05,3.16.66,6.057,1.032,8.2,21.47,11.291,46.705,9.356,46.432,43.078-9.523,3.333-26.651,1.026-38.177,1.026H39.477a12.081,12.081,0,0,1-1.032-4.1c2.17-2.83.668-8.663,2.064-12.308,1.525-3.982,5.856-11.022,9.286-13.333,7.633-5.144,30.956-9.133,35.082-15.385,1.588-1.7,2.06-3.593,1.032-5.129-1.413-4.953-5.355-8.952-7.223-13.333C77.1,88.9,73.089,69.5,74.559,63.889l3.1-10.257c2.867-1.759,1.851-2.916,3.1-4.1,2-1.911,5.335-2.075,7.223-4.1C90.4,45.292,90.892,45.38,92.1,44.4Z" transform="translate(-24 -41.969)"/>
</svg>
